# xmcd CD database file
# Copyright (C) 1995-1998 Ti Kan
#
# Track frame offsets:
#	150
#	18420
#	43297
#	62937
#	81167
#	100460
#	114360
#	138825
#	157105
#	173740
#	193832
#	207910
#	233730
#	251345
#
# Disc length: 3682 seconds
#
# Revision: 1
# Processed by: cddbd v1.4b41PL1 Copyright (c) Steve Scherf et al.
# Submitted via: CDex 1.30
#
DISCID=c10e600e
DTITLE=Roomful of Blues - The Blues'll Make You Happy, Too!
DYEAR=2000
DGENRE=Blues
TTITLE0=Poverty
TTITLE1=The Comeback
TTITLE2=Just Like Dynamite
TTITLE3=I'm Just Your Fool
TTITLE4=Standing Here at the Crossroads
TTITLE5=If You Know It
TTITLE6=Baby, Baby, Baby
TTITLE7=She'll Be So Fine
TTITLE8=Back on Front Street
TTITLE9=He Knows the Rules
TTITLE10=Loan A Helping Hand
TTITLE11=Jeep's Blues
TTITLE12=That's My Life
TTITLE13=Shake Rattle and Roll (with Big Joe Turner)
EXTD=YEAR: 2000  ID3G:   0
EXTT0=
EXTT1=
EXTT2=
EXTT3=
EXTT4=
EXTT5=
EXTT6=
EXTT7=
EXTT8=
EXTT9=
EXTT10=
EXTT11=
EXTT12=
EXTT13=
PLAYORDER=
